<svg width="30" height="30" viewBox="0 0 30 30" fill="none" xmlns="http://www.w3.org/2000/svg">
<path id="Vector" d="M15.4925 20.845C15.4925 19.8588 15.915 19.7175 16.9012 20.2813C18.0104 20.9235 19.1375 21.5342 20.2813 22.1125C20.2813 21.55 20.845 21.1263 21.8313 21.4075C22.8175 21.69 23.8025 21.83 23.8025 21.83C23.8025 21.83 23.24 20.5625 22.9575 20C22.535 19.0138 22.9575 18.45 23.38 18.31C23.38 18.31 22.8175 17.8875 22.3938 17.605C21.5488 17.0425 21.69 16.3375 22.535 16.055C23.6625 15.4925 25.2113 14.93 25.2113 14.93C24.7888 14.6475 24.225 13.9425 24.7887 12.9575C25.3512 12.1125 26.3387 10.845 26.3387 10.845H23.6625C22.675 10.845 22.3938 10 22.3938 9.43625C22.3938 9.43625 20.845 10.5625 19.7187 11.2675C18.7312 11.9712 17.8875 11.2675 18.0288 10.14C18.2182 8.92527 18.3592 7.70346 18.4512 6.4775C17.8875 7.04125 16.9013 6.90125 16.3388 6.05625C15.6338 4.6475 14.93 2.95625 14.93 2.95625C14.93 2.95625 14.225 4.6475 13.5213 6.0575C13.0988 6.9025 12.1125 7.0425 11.5488 6.62C11.6408 7.84596 11.7818 9.06777 11.9712 10.2825C12.1125 11.2688 11.2675 11.9725 10.2813 11.2688C9.155 10.5638 7.465 9.4375 7.465 9.4375C7.465 10 7.1825 10.705 6.1975 10.8463H3.52125C3.52125 10.8463 4.5075 12.1138 5.07125 12.9588C5.63375 13.8038 5.07125 14.6488 4.6475 14.93C4.6475 14.93 6.05625 15.635 7.32375 16.0575C8.16875 16.48 8.45125 17.0425 7.465 17.6075C7.1825 17.8888 6.47875 18.3113 6.47875 18.3113C7.04125 18.4513 7.465 19.015 7.04125 20.0013C6.76 20.5638 6.1975 21.8313 6.1975 21.8313C6.1975 21.8313 7.1825 21.55 8.16875 21.4088C9.155 21.1275 9.5775 21.6912 9.71875 22.1137C9.71875 22.1137 11.4088 21.1275 13.0988 20.2825C13.9438 19.72 14.5075 20.0013 14.5075 20.845V23.24C14.5075 24.6488 14.225 26.0575 13.8025 26.9025C7.465 26.1975 2.1125 21.1275 2.1125 14.3675C2.1125 7.46625 7.8875 1.83125 15.07 1.83125C22.2537 1.83125 28.0288 7.46625 28.0288 14.3675C28.0288 20.8463 22.9575 26.1975 16.4787 26.9025V28.5925C24.085 27.8875 30 21.83 30 14.3663C30 6.3375 23.24 0 14.93 0C6.76 0 0 6.3375 0 14.225C0 21.1263 5.21125 26.9 12.1125 28.1687C13.24 28.45 13.9438 28.5913 14.6475 29.295C15.3525 27.8875 15.4925 25.07 15.4925 23.52V20.845Z" fill="#FA1A1A"/>
</svg>
